<?xml version="1.0" encoding="utf-8"?>
<!-- Generator: Adobe Illustrator 16.0.0, SVG Export Plug-In . SVG Version: 6.00 Build 0)  -->
<!DOCTYPE svg PUBLIC "-//W3C//DTD SVG 1.1//EN" "http://www.w3.org/Graphics/SVG/1.1/DTD/svg11.dtd">
<svg version="1.1" id="图层_1" xmlns="http://www.w3.org/2000/svg" xmlns:xlink="http://www.w3.org/1999/xlink" x="0px" y="0px"
	 width="450px" height="200px" viewBox="0 0 450 200" enable-background="new 0 0 450 200" xml:space="preserve">
<g>
	<g>
		<g>
			
				<linearGradient id="SVGID_1_" gradientUnits="userSpaceOnUse" x1="55.7944" y1="-140.9355" x2="487.7988" y2="-140.9355" gradientTransform="matrix(1 0 0 -1 -47.6602 31.04)">
				<stop  offset="0" style="stop-color:#F27F7B"/>
				<stop  offset="0.5" style="stop-color:#ED3D57"/>
				<stop  offset="1" style="stop-color:#DE1E47"/>
			</linearGradient>
			<path fill="url(#SVGID_1_)" d="M437.963,158.951c-13.974,0-15.728,0-29.697,0c-28.081,0-56.166,0-84.25,0
				c-21.44,0-42.885,0-64.328,0c-2.096,0-4.194,0-6.289,0c-1.344,0-2.098,1.037-2.252,2.252c-0.735,5.818-3.515,11.173-8.324,14.621
				c-5.191,3.729-11.73,4.771-17.986,4.654c-5.704-0.105-11.781-1.39-16.354-4.994c-4.645-3.661-6.782-9.166-7.577-14.881
				c-0.136-0.976-1.269-1.652-2.168-1.652c-14.451,0-28.901,0-43.348,0c-28.229,0-56.457,0-84.687,0c-19.323,0-38.65,0-57.974,0
				c-0.807,0-1.61,0-2.416,0c-2.904,0-2.904,4.505,0,4.505c14.448,0,28.897,0,43.347,0c28.228,0,56.455,0,84.683,0
				c19.328,0,38.652,0,57.977,0c0.805,0,1.61,0,2.417,0c-0.724-0.554-1.449-1.104-2.172-1.653
				c0.925,6.645,3.762,12.943,9.115,17.162c5.603,4.418,12.771,5.898,19.77,6.027c7.178,0.137,14.665-1.512,20.475-5.889
				c5.799-4.363,8.83-10.815,9.721-17.9c-0.746,0.752-1.498,1.501-2.246,2.253c13.973,0,27.942,0,41.916,0c28.08,0,56.162,0,84.25,0
				c21.438,0,30.666,0,52.106,0c2.095,0,4.191,0,6.292,0C440.863,163.456,440.863,158.951,437.963,158.951L437.963,158.951z"/>
		</g>
		<path fill="#F2F2F2" d="M18.244,154.902h198.497c0,0,5.787-60.231,16.722,0h196.78v-24.006c0,0-120.9-24.649-202.571-3.43
			c0,0-4.499-2.57-6.858,0.857c0,0-50.804-22.938-202.785,1.929L18.244,154.902z"/>
		<g>
			<path fill="#E6E6E6" d="M227.672,127.145c0,0-4.499-2.568-6.858,0.859c0,0-50.804-22.938-202.785,1.93
				c0,0,139.549-8.041,198.712,24.654c0,0,5.787-60.238,16.722,0c0,0-0.55-17.043-5.791-27.12"/>
			<g>
				<path fill="#CCCCCC" d="M18.244,155.547v0.002V155.547L18.244,155.547z M232.924,155.547l-0.093-0.529
					c-2.716-15.016-5.175-22.549-7.117-25.143l0,0c-0.64-0.871-1.144-1.105-1.446-1.1l0,0c-0.306-0.006-0.735,0.229-1.231,0.891l0,0
					c-0.487,0.652-0.977,1.652-1.433,2.876l0,0c-0.915,2.446-1.7,5.771-2.325,9.097l0,0c-1.256,6.654-1.896,13.314-1.897,13.327l0,0
					l-0.055,0.581H18.244v-1.283H216.16c0.157-1.504,0.629-5.72,1.406-10.353l0,0c0.994-5.812,2.378-12.194,4.437-15.015l0,0
					c0.596-0.797,1.329-1.395,2.265-1.408l0,0c0.933,0.015,1.74,0.611,2.486,1.621l0,0c0.749,1.023,1.493,2.533,2.273,4.654l0,0
					c1.529,4.176,3.18,10.731,4.97,20.502l0,0h196.246v1.28L232.924,155.547L232.924,155.547z"/>
			</g>
		</g>
	</g>
	<g>
		<g>
			<path fill="#CCCCCC" d="M227.672,127.468c0,0,66.628-17.462,202.571,3.429l-14.664-13.97
				C415.579,116.927,299.153,98.964,227.672,127.468z"/>
			<g>
				<path fill="#FFFFFF" d="M227.279,128.004c0,0,55.791-24.674,201.521-5.848l-14.294-19.872
					C414.506,102.284,311.296,99.337,227.279,128.004z"/>
				
					<linearGradient id="SVGID_2_" gradientUnits="userSpaceOnUse" x1="537.1191" y1="-105.5371" x2="120.15" y2="-36.7403" gradientTransform="matrix(1 0 0 -1 -47.6602 31.04)">
					<stop  offset="0" style="stop-color:#FDEBF3"/>
					<stop  offset="0.1124" style="stop-color:#F7EAF3"/>
					<stop  offset="0.2303" style="stop-color:#FAF1F2"/>
					<stop  offset="0.3539" style="stop-color:#FFFEF1"/>
					<stop  offset="0.4764" style="stop-color:#FBFBF1"/>
					<stop  offset="0.592" style="stop-color:#F0F3F2"/>
					<stop  offset="0.7045" style="stop-color:#DDE5F4"/>
					<stop  offset="0.7135" style="stop-color:#DBE4F4"/>
					<stop  offset="1" style="stop-color:#FEE9DF"/>
				</linearGradient>
				<path fill="url(#SVGID_2_)" d="M223.828,127.489l3.451,0.515c0,0,85.542-29.672,197.803-16.191L407.65,88.339
					c0,0-97.732-2.906-183.5,33.353L223.828,127.489z"/>
				<path fill="#CCCCCC" d="M223.828,127.489c0,0,84.81-40.779,197.302-26.834l-21.384-24.636c0,0-84.833-2.094-175.596,45.67
					L223.828,127.489z"/>
				<path fill="#FFFFFF" d="M223.828,127.489c0,0,91.315-43.566,193.584-37.524l-30.217-24.636c0,0-66.151-7.583-163.307,49.593
					L223.828,127.489z"/>
			</g>
		</g>
		<path fill="#FFFFFF" d="M223.596,124.945v-10.023c0,0,25.449-75.043,132.829-87.943l39.048,32.423
			C395.473,59.402,287.047,51.383,223.596,124.945z"/>
	</g>
	<g>
		<path fill="#CCCCCC" d="M220.814,128.004c0,0-81.563-16.677-202.785,1.93l17.303-24.629
			C35.332,105.305,138.079,100.497,220.814,128.004z"/>
		<path fill="#E6E6E6" d="M220.814,128.004c0,0-55.79-24.674-201.519-5.848l14.294-19.872
			C33.589,102.284,136.8,99.337,220.814,128.004z"/>
		<path fill="#FFFFFF" d="M224.268,127.489l-3.454,0.515c0,0-85.54-29.672-197.801-16.191l17.432-23.474
			c0,0,97.733-2.906,183.499,33.353L224.268,127.489z"/>
		<path fill="#CCCCCC" d="M224.268,127.489c0,0-84.811-40.779-197.303-26.834l21.383-24.636c0,0,84.833-2.094,175.596,45.67
			L224.268,127.489z"/>
		<path fill="#FFFFFF" d="M224.268,127.489c0,0-91.316-43.566-193.583-37.524l30.215-24.636c0,0,66.153-7.583,163.307,49.593
			L224.268,127.489z"/>
		<path fill="#FFFFFF" d="M223.479,124.945v-10.023c0,0-36.142-92.127-123.301-100.146L59.387,51.034
			C59.388,51.035,162.933,39.53,223.479,124.945z"/>
	</g>
</g>
</svg>
