<?xml version="1.0" encoding="utf-8"?>
<!-- Generator: Adobe Illustrator 16.0.0, SVG Export Plug-In . SVG Version: 6.00 Build 0)  -->
<!DOCTYPE svg PUBLIC "-//W3C//DTD SVG 1.1//EN" "http://www.w3.org/Graphics/SVG/1.1/DTD/svg11.dtd">
<svg version="1.1" id="图层_1" xmlns="http://www.w3.org/2000/svg" xmlns:xlink="http://www.w3.org/1999/xlink" x="0px" y="0px"
	 width="60px" height="60px" viewBox="0 0 60 60" enable-background="new 0 0 60 60" xml:space="preserve">
<g>
	<g>
		<path fill="#24285B" d="M37.393,30.38c-0.681,0-1.232,0.17-1.232,0.382l0.303,3.225c0,0.211,0.429,0.382,0.954,0.382
			s0.952-0.171,0.952-0.382l0.256-3.225C38.625,30.55,38.072,30.38,37.393,30.38z"/>
	</g>
	<polyline fill="none" stroke="#424042" stroke-width="0.9745" stroke-linecap="round" stroke-miterlimit="10" points="
		32.438,33.432 41.258,33.409 44.29,24.309 	"/>
	<path fill="#DAAF89" d="M31.471,33.912c0,0,0.551,0.432,2.296,0.582c0,0,1.895-0.369,1.462-1.46
		c-0.46-1.158-2.639-0.413-2.639-0.413L31.471,33.912z"/>
	<path fill="#DAAF89" d="M31.063,33.363c0,0,0.549,0.432,2.295,0.582c0,0,1.896-0.369,1.463-1.46
		c-0.46-1.158-2.639-0.413-2.639-0.413L31.063,33.363z"/>
	<linearGradient id="SVGID_1_" gradientUnits="userSpaceOnUse" x1="32.3828" y1="44.79" x2="34.8203" y2="44.79">
		<stop  offset="0" style="stop-color:#CAC9C9"/>
		<stop  offset="1" style="stop-color:#FFFFFF"/>
	</linearGradient>
	<rect x="32.383" y="34.809" fill="url(#SVGID_1_)" width="2.438" height="19.963"/>
	<linearGradient id="SVGID_2_" gradientUnits="userSpaceOnUse" x1="48.0625" y1="44.79" x2="50.5" y2="44.79">
		<stop  offset="0" style="stop-color:#CAC9C9"/>
		<stop  offset="1" style="stop-color:#FFFFFF"/>
	</linearGradient>
	<rect x="48.063" y="34.809" fill="url(#SVGID_2_)" width="2.438" height="19.963"/>
	<g>
		
			<radialGradient id="SVGID_3_" cx="-1.0259" cy="15818.5332" r="3.342" gradientTransform="matrix(-0.7423 0 0 0.2316 22.0723 -3625.6438)" gradientUnits="userSpaceOnUse">
			<stop  offset="0" style="stop-color:#58595B"/>
			<stop  offset="1" style="stop-color:#221F20"/>
		</radialGradient>
		<path fill="url(#SVGID_3_)" d="M21.078,40.394c-0.115,0-0.231-0.04-0.324-0.123c-0.201-0.179-0.219-0.487-0.041-0.688l3.513-3.954
			c0.179-0.202,0.487-0.22,0.688-0.041s0.219,0.487,0.041,0.688l-3.513,3.954C21.346,40.338,21.212,40.394,21.078,40.394z"/>
	</g>
	<g>
		
			<radialGradient id="SVGID_4_" cx="2.9043" cy="15808.8281" r="5.242" gradientTransform="matrix(-0.7423 0 0 0.2316 22.0723 -3625.6438)" gradientUnits="userSpaceOnUse">
			<stop  offset="0" style="stop-color:#58595B"/>
			<stop  offset="1" style="stop-color:#221F20"/>
		</radialGradient>
		<path fill="url(#SVGID_4_)" d="M20.543,37.041c-3.661,0-5.656-1.773-5.766-1.873c-0.198-0.182-0.212-0.488-0.031-0.688
			c0.181-0.197,0.488-0.213,0.688-0.033c0.132,0.119,3.296,2.886,9.137,0.907c0.256-0.085,0.532,0.051,0.618,0.306
			c0.086,0.254-0.05,0.531-0.305,0.617C23.248,36.832,21.798,37.041,20.543,37.041z"/>
	</g>
	
		<linearGradient id="SVGID_5_" gradientUnits="userSpaceOnUse" x1="-31.2168" y1="52.9863" x2="-24.8145" y2="52.9863" gradientTransform="matrix(0.9006 -0.0072 0.008 1 52.9851 -0.79)">
		<stop  offset="0" style="stop-color:#5F391A"/>
		<stop  offset="0.5277" style="stop-color:#895D3C"/>
		<stop  offset="0.81" style="stop-color:#5F391A"/>
	</linearGradient>
	<path fill="url(#SVGID_5_)" d="M30.938,53.555l-5.634,0.049l-0.017-2.211c0,0,4.34-0.535,5.473,0.258
		C31.313,52.037,30.938,53.555,30.938,53.555z"/>
	
		<linearGradient id="SVGID_6_" gradientUnits="userSpaceOnUse" x1="-31.2173" y1="54.1973" x2="-24.9526" y2="54.1973" gradientTransform="matrix(0.9006 -0.0072 0.008 1 52.9851 -0.79)">
		<stop  offset="0" style="stop-color:#5F391A"/>
		<stop  offset="0.5277" style="stop-color:#895D3C"/>
		<stop  offset="0.81" style="stop-color:#5F391A"/>
	</linearGradient>
	<polygon fill="url(#SVGID_6_)" points="30.948,53.854 25.307,53.904 25.302,53.365 30.944,53.314 	"/>
	<g>
		<g>
			<g>
				<g>
					<polygon fill="#A3D7E8" points="22.546,27.313 23.797,25.651 32.152,31.745 30.926,33.377 					"/>
					<path fill="#E1F2FB" d="M23.783,25.737l8.283,5.994l-1.15,1.591l-8.284-5.995L23.783,25.737 M23.766,25.628l-1.242,1.717
						l8.411,6.086l1.241-1.718L23.766,25.628L23.766,25.628z"/>
				</g>
			</g>
			<g>
				<g>
					<polygon fill="#A3D7E8" points="31.043,33.27 32.111,31.859 32.359,32.088 31.315,33.467 					"/>
					<path fill="#E1F2FB" d="M32.097,31.945l0.177,0.129l-0.967,1.338l-0.178-0.129L32.097,31.945 M32.079,31.837l-1.06,1.464
						l0.305,0.22l1.059-1.464L32.079,31.837L32.079,31.837z"/>
				</g>
			</g>
		</g>
		<path fill="#CAA08A" d="M30.78,16.645c-0.625,3.36-2.649,7.149-7.458,6.257c-5.047-0.937-5.341-5.153-4.717-8.516
			c0.625-3.362,3.855-5.582,7.216-4.958C29.183,10.051,31.404,13.281,30.78,16.645z"/>
		
			<rect x="21.779" y="20.63" transform="matrix(0.9833 0.182 -0.182 0.9833 4.6001 -3.8516)" fill="#CAA08A" width="3.001" height="5.003"/>
		<path fill="#94C5D9" stroke="#DAEFF7" stroke-width="0.078" stroke-miterlimit="10" d="M24.808,37.231
			c-1.678,1.152-6.855,0.193-8.009-1.485l4.836-11.976l2.992,0.555L24.808,37.231z"/>
		
			<radialGradient id="SVGID_7_" cx="-47.814" cy="10.8535" r="0" gradientTransform="matrix(-1 0 0 1 -27.8008 0)" gradientUnits="userSpaceOnUse">
			<stop  offset="0" style="stop-color:#58595B"/>
			<stop  offset="1" style="stop-color:#221F20"/>
		</radialGradient>
		<path fill="url(#SVGID_7_)" d="M20.013,10.854"/>
		<polygon fill="#424042" points="24.855,25.498 24.848,30.587 24.054,31.41 23.414,30.587 24.282,25.498 		"/>
		
			<radialGradient id="SVGID_8_" cx="-33.3462" cy="-12.3218" r="29.4222" gradientTransform="matrix(-0.9494 0.314 0.314 0.9494 5.8624 17.9586)" gradientUnits="userSpaceOnUse">
			<stop  offset="0" style="stop-color:#A57A50"/>
			<stop  offset="1" style="stop-color:#3C2415"/>
		</radialGradient>
		<path fill="url(#SVGID_8_)" d="M26.796,13.272c0,0-6.528-2.896-8.275-1.797c0,0,4.98-6.623,10.988-0.377
			C29.509,11.098,34.305,15.596,26.796,13.272z"/>
		
			<radialGradient id="SVGID_9_" cx="-30.2725" cy="-14.4429" r="34.6594" gradientTransform="matrix(-0.9494 0.314 0.314 0.9494 5.8624 17.9586)" gradientUnits="userSpaceOnUse">
			<stop  offset="0" style="stop-color:#A57A50"/>
			<stop  offset="1" style="stop-color:#3C2415"/>
		</radialGradient>
		<path fill="url(#SVGID_9_)" d="M20.013,21.657c1.704,0,0.692-5.111,1.829-5.668c2.126-1.042,3.371,2.712,3.371,0.785
			c0-2.275,2.6-3.296,2.6-3.296s-4.357-4.988-9.292-2.002c0,0-3.375,3.208-0.305,8.567C18.216,20.042,19.037,21.657,20.013,21.657z"
			/>
		<g>
			<g>
				<g>
					<polygon fill="#A3D7E8" points="21.078,27.687 22.416,25.741 32.168,32.264 30.85,34.179 					"/>
					<path fill="#E1F2FB" d="M22.405,25.827l9.677,6.427l-1.244,1.871l-9.674-6.428L22.405,25.827 M22.384,25.719l-1.328,2
						l9.804,6.513l1.329-2.001L22.384,25.719L22.384,25.719z"/>
				</g>
			</g>
			<g>
				<g>
					<polygon fill="#A3D7E8" points="30.973,34.049 32.118,32.396 32.416,32.641 31.293,34.262 					"/>
					<path fill="#E1F2FB" d="M32.107,32.482l0.223,0.148l-1.049,1.576l-0.222-0.148L32.107,32.482 M32.086,32.374l-1.134,1.707
						l0.352,0.233l1.134-1.705L32.086,32.374L32.086,32.374z"/>
				</g>
			</g>
		</g>
	</g>
	<g>
		
			<radialGradient id="SVGID_10_" cx="-26.3096" cy="15889.3672" r="1.4643" gradientTransform="matrix(-1 0 0 0.3414 -7.3721 -5374.8345)" gradientUnits="userSpaceOnUse">
			<stop  offset="0" style="stop-color:#58595B"/>
			<stop  offset="1" style="stop-color:#221F20"/>
		</radialGradient>
		<path fill="url(#SVGID_10_)" d="M19.552,51.506c-0.077,0-0.154-0.018-0.228-0.057c-0.238-0.125-0.329-0.42-0.203-0.658
			c0.127-0.241-0.468-1.166-1.201-1.868c-0.195-0.187-0.201-0.495-0.015-0.688c0.186-0.195,0.495-0.202,0.689-0.016
			c0.466,0.445,1.942,1.981,1.389,3.027C19.896,51.412,19.727,51.506,19.552,51.506z"/>
	</g>
	
		<linearGradient id="SVGID_11_" gradientUnits="userSpaceOnUse" x1="-28.001" y1="51.5957" x2="-24.8687" y2="51.5957" gradientTransform="matrix(-1 0 0 1 -7.3721 0)">
		<stop  offset="0" style="stop-color:#58595B"/>
		<stop  offset="1" style="stop-color:#221F20"/>
	</linearGradient>
	<circle fill="url(#SVGID_11_)" cx="19.063" cy="51.596" r="1.566"/>
	
		<radialGradient id="SVGID_12_" cx="-25.3672" cy="41635.3438" r="8.571" gradientTransform="matrix(-1.2775 0 0 0.1326 -13.9893 -5467.1416)" gradientUnits="userSpaceOnUse">
		<stop  offset="0" style="stop-color:#ADABAB"/>
		<stop  offset="1" style="stop-color:#FFFFFF"/>
	</radialGradient>
	<ellipse fill="url(#SVGID_12_)" cx="18.418" cy="53.704" rx="12.039" ry="1.145"/>
	
		<radialGradient id="SVGID_13_" cx="-26.2671" cy="15820.998" r="11.2976" gradientTransform="matrix(-1 0 0 0.2362 -7.3721 -3694.9836)" gradientUnits="userSpaceOnUse">
		<stop  offset="0" style="stop-color:#58595B"/>
		<stop  offset="1" style="stop-color:#221F20"/>
	</radialGradient>
	<rect x="17.497" y="41.539" fill="url(#SVGID_13_)" width="1.843" height="7.648"/>
	<path fill="#424042" d="M12.919,41.826c1.657,3.258,16.291,2.47,14.531-1.234c-0.638-1.342-12.007-0.629-12.007-0.629l-2.485-2.283
		C12.988,37.578,12.15,40.314,12.919,41.826z"/>
	
		<radialGradient id="SVGID_14_" cx="6.7598" cy="14160.957" r="18.0988" gradientTransform="matrix(-0.7053 0 0 0.3676 26.5664 -5161.0166)" gradientUnits="userSpaceOnUse">
		<stop  offset="0" style="stop-color:#58595B"/>
		<stop  offset="1" style="stop-color:#221F20"/>
	</radialGradient>
	<path fill="url(#SVGID_14_)" d="M12.919,41.826c1.283,2.581,15.479,2.049,14.678-2.09c-0.163-0.842-11.252,0.414-11.252,0.414
		l-3.388-2.471C12.958,37.68,12.524,41.031,12.919,41.826z"/>
	
		<radialGradient id="SVGID_15_" cx="54.9668" cy="15812.5195" r="20.2244" gradientTransform="matrix(-0.482 0 0 0.3414 42.4789 -5374.8345)" gradientUnits="userSpaceOnUse">
		<stop  offset="0" style="stop-color:#58595B"/>
		<stop  offset="1" style="stop-color:#221F20"/>
	</radialGradient>
	<path fill="url(#SVGID_15_)" d="M12.693,38.938l3.652,1.212c0,0,1.785-13.717,0.67-16.03c-0.944-1.959-4.069-1.959-5.015,0
		C10.789,26.636,12.642,38.735,12.693,38.938z"/>
	
		<linearGradient id="SVGID_16_" gradientUnits="userSpaceOnUse" x1="-34.688" y1="52.4453" x2="-31.5552" y2="52.4453" gradientTransform="matrix(-1 0 0 1 -7.3721 0)">
		<stop  offset="0" style="stop-color:#58595B"/>
		<stop  offset="1" style="stop-color:#221F20"/>
	</linearGradient>
	<circle fill="url(#SVGID_16_)" cx="25.75" cy="52.445" r="1.566"/>
	
		<linearGradient id="SVGID_17_" gradientUnits="userSpaceOnUse" x1="-25.8604" y1="53.0039" x2="-23.8755" y2="53.0039" gradientTransform="matrix(-1 0 0 1 -7.3721 0)">
		<stop  offset="0" style="stop-color:#58595B"/>
		<stop  offset="1" style="stop-color:#221F20"/>
	</linearGradient>
	<ellipse fill="url(#SVGID_17_)" cx="17.496" cy="53.003" rx="0.992" ry="1.566"/>
	
		<linearGradient id="SVGID_18_" gradientUnits="userSpaceOnUse" x1="-19.2178" y1="52.4453" x2="-16.0859" y2="52.4453" gradientTransform="matrix(-1 0 0 1 -7.3721 0)">
		<stop  offset="0" style="stop-color:#58595B"/>
		<stop  offset="1" style="stop-color:#221F20"/>
	</linearGradient>
	<circle fill="url(#SVGID_18_)" cx="10.28" cy="52.445" r="1.566"/>
	<g>
		
			<radialGradient id="SVGID_19_" cx="7.7539" cy="15892.3027" r="3.5323" gradientTransform="matrix(1 0 0 0.3414 7.0967 -5374.8345)" gradientUnits="userSpaceOnUse">
			<stop  offset="0" style="stop-color:#58595B"/>
			<stop  offset="1" style="stop-color:#221F20"/>
		</radialGradient>
		<path fill="url(#SVGID_19_)" d="M17.497,53.013c0.313,0,0.567-0.254,0.567-0.567c0-1.398,0.843-2.971,0.852-2.986l0.412-0.759
			l-0.86-0.075c-4.377-0.38-7.71,1.867-7.849,1.963c-0.257,0.178-0.323,0.529-0.146,0.787c0.178,0.258,0.531,0.324,0.788,0.146
			c0.03-0.02,2.758-1.848,6.29-1.808c-0.281,0.687-0.62,1.722-0.62,2.731C16.93,52.759,17.184,53.013,17.497,53.013z"/>
	</g>
	<g>
		
			<radialGradient id="SVGID_20_" cx="-29.3574" cy="15890.2617" r="3.2297" gradientTransform="matrix(-1 0 0 0.3414 -7.3721 -5374.8345)" gradientUnits="userSpaceOnUse">
			<stop  offset="0" style="stop-color:#58595B"/>
			<stop  offset="1" style="stop-color:#221F20"/>
		</radialGradient>
		<path fill="url(#SVGID_20_)" d="M25.723,51.621c0.18,0,0.358-0.086,0.468-0.246c0.177-0.258,0.112-0.609-0.147-0.787
			c-0.139-0.096-3.473-2.35-7.849-1.963c-0.312,0.026-0.542,0.303-0.514,0.613c0.025,0.313,0.299,0.553,0.613,0.516
			c3.968-0.35,7.078,1.747,7.109,1.768C25.5,51.588,25.612,51.621,25.723,51.621z"/>
	</g>
	
		<radialGradient id="SVGID_21_" cx="-17.7642" cy="14184.6348" r="1.1251" gradientTransform="matrix(-1 0 0 0.3676 -7.3721 -5161.0166)" gradientUnits="userSpaceOnUse">
		<stop  offset="0" style="stop-color:#58595B"/>
		<stop  offset="1" style="stop-color:#221F20"/>
	</radialGradient>
	<circle fill="url(#SVGID_21_)" cx="10.257" cy="52.378" r="0.625"/>
	
		<radialGradient id="SVGID_22_" cx="-33.23" cy="14185.1309" r="1.1272" gradientTransform="matrix(-1 0 0 0.3676 -7.3721 -5161.0166)" gradientUnits="userSpaceOnUse">
		<stop  offset="0" style="stop-color:#58595B"/>
		<stop  offset="1" style="stop-color:#221F20"/>
	</radialGradient>
	<circle fill="url(#SVGID_22_)" cx="25.722" cy="52.561" r="0.626"/>
	
		<linearGradient id="SVGID_23_" gradientUnits="userSpaceOnUse" x1="-18.0801" y1="51.4863" x2="-16.0381" y2="51.4863" gradientTransform="matrix(-1 0 0 1 -7.3721 0)">
		<stop  offset="0" style="stop-color:#BCBEC0"/>
		<stop  offset="0.3118" style="stop-color:#6D6E71"/>
		<stop  offset="0.5645" style="stop-color:#A9ABAD"/>
		<stop  offset="1" style="stop-color:#E6E7E8"/>
	</linearGradient>
	<path fill="url(#SVGID_23_)" d="M10.58,50.573c0.411,0.169-0.3,1.987-0.3,1.987l-1.614-0.903
		C8.666,51.657,8.894,49.877,10.58,50.573z"/>
	
		<linearGradient id="SVGID_24_" gradientUnits="userSpaceOnUse" x1="-21.0806" y1="53.5605" x2="-18.4043" y2="53.5605" gradientTransform="matrix(-0.9883 0.1525 0.1525 0.9883 -10.3356 2.299)">
		<stop  offset="0" style="stop-color:#BCBEC0"/>
		<stop  offset="0.3118" style="stop-color:#6D6E71"/>
		<stop  offset="0.5645" style="stop-color:#A9ABAD"/>
		<stop  offset="1" style="stop-color:#E6E7E8"/>
	</linearGradient>
	<path fill="url(#SVGID_24_)" d="M17.842,51.207c1.023,0.151,0.919,1.854,0.919,1.854l-2.64,0.009
		C16.122,53.069,15.666,50.885,17.842,51.207z"/>
	<g>
		<g>
			<defs>
				<path id="SVGID_25_" d="M16.926,35.679c0,0-2.297,5.653,0.571,5.86c2.869,0.205,10.316,0.191,10.316,0.191l-2.491,9.117
					l2.601,0.611c0,0,4.036-11.089,3.778-11.721c-0.558-1.365-7.006-1.447-7.006-1.447s0.285,0.186,0.068-1.095
					s-8.258-1.518-8.258-1.518"/>
			</defs>
			<linearGradient id="SVGID_26_" gradientUnits="userSpaceOnUse" x1="16.0552" y1="43.5684" x2="31.7129" y2="43.5684">
				<stop  offset="0" style="stop-color:#58595B"/>
				<stop  offset="1" style="stop-color:#221F20"/>
			</linearGradient>
			<use xlink:href="#SVGID_25_"  overflow="visible" fill="url(#SVGID_26_)"/>
			<clipPath id="SVGID_27_">
				<use xlink:href="#SVGID_25_"  overflow="visible"/>
			</clipPath>
			<linearGradient id="SVGID_28_" gradientUnits="userSpaceOnUse" x1="14.627" y1="43.5693" x2="31.959" y2="43.5693">
				<stop  offset="0" style="stop-color:#58595B"/>
				<stop  offset="1" style="stop-color:#221F20"/>
			</linearGradient>
			<rect x="14.627" y="35.68" clip-path="url(#SVGID_27_)" fill="url(#SVGID_28_)" width="17.332" height="15.779"/>
			<linearGradient id="SVGID_29_" gradientUnits="userSpaceOnUse" x1="16.0239" y1="43.5684" x2="31.7422" y2="43.5684">
				<stop  offset="0" style="stop-color:#58595B"/>
				<stop  offset="1" style="stop-color:#221F20"/>
			</linearGradient>
			<path clip-path="url(#SVGID_27_)" fill="url(#SVGID_29_)" d="M16.024,43.57c0-1.659,3.518-3.007,7.861-3.007
				c4.34,0,7.857,1.348,7.857,3.007c0,1.656-3.518,3.004-7.857,3.004C19.542,46.574,16.024,45.227,16.024,43.57z"/>
			<linearGradient id="SVGID_30_" gradientUnits="userSpaceOnUse" x1="16.1572" y1="43.5693" x2="31.6123" y2="43.5693">
				<stop  offset="0" style="stop-color:#58595B"/>
				<stop  offset="1" style="stop-color:#221F20"/>
			</linearGradient>
			<ellipse clip-path="url(#SVGID_27_)" fill="url(#SVGID_30_)" cx="23.885" cy="43.57" rx="7.728" ry="2.953"/>
			<linearGradient id="SVGID_31_" gradientUnits="userSpaceOnUse" x1="16.2905" y1="43.5684" x2="31.4756" y2="43.5684">
				<stop  offset="0" style="stop-color:#58595B"/>
				<stop  offset="1" style="stop-color:#221F20"/>
			</linearGradient>
			<ellipse clip-path="url(#SVGID_27_)" fill="url(#SVGID_31_)" cx="23.883" cy="43.57" rx="7.593" ry="2.904"/>
			<linearGradient id="SVGID_32_" gradientUnits="userSpaceOnUse" x1="16.4238" y1="43.5684" x2="31.3457" y2="43.5684">
				<stop  offset="0" style="stop-color:#58595B"/>
				<stop  offset="1" style="stop-color:#221F20"/>
			</linearGradient>
			<path clip-path="url(#SVGID_27_)" fill="url(#SVGID_32_)" d="M16.424,43.57c0-1.575,3.338-2.854,7.461-2.854
				c4.119,0,7.461,1.279,7.461,2.854c0,1.572-3.342,2.852-7.461,2.852C19.762,46.422,16.424,45.143,16.424,43.57z"/>
			<linearGradient id="SVGID_33_" gradientUnits="userSpaceOnUse" x1="16.5571" y1="43.5693" x2="31.209" y2="43.5693">
				<stop  offset="0" style="stop-color:#58595B"/>
				<stop  offset="1" style="stop-color:#221F20"/>
			</linearGradient>
			<ellipse clip-path="url(#SVGID_27_)" fill="url(#SVGID_33_)" cx="23.883" cy="43.57" rx="7.326" ry="2.801"/>
			<linearGradient id="SVGID_34_" gradientUnits="userSpaceOnUse" x1="16.6904" y1="43.5684" x2="31.0801" y2="43.5684">
				<stop  offset="0" style="stop-color:#58595B"/>
				<stop  offset="1" style="stop-color:#221F20"/>
			</linearGradient>
			<path clip-path="url(#SVGID_27_)" fill="url(#SVGID_34_)" d="M16.69,43.57c0-1.521,3.22-2.752,7.194-2.752
				s7.195,1.23,7.195,2.752c0,1.516-3.221,2.749-7.195,2.749S16.69,45.086,16.69,43.57z"/>
			<linearGradient id="SVGID_35_" gradientUnits="userSpaceOnUse" x1="16.8232" y1="43.5664" x2="30.9424" y2="43.5664">
				<stop  offset="0" style="stop-color:#58595B"/>
				<stop  offset="1" style="stop-color:#221F20"/>
			</linearGradient>
			<path clip-path="url(#SVGID_27_)" fill="url(#SVGID_35_)" d="M16.823,43.57c0-1.492,3.16-2.702,7.062-2.702
				c3.898,0,7.058,1.21,7.058,2.702c0,1.489-3.16,2.695-7.058,2.695C19.983,46.266,16.823,45.06,16.823,43.57z"/>
			<linearGradient id="SVGID_36_" gradientUnits="userSpaceOnUse" x1="16.9565" y1="43.5693" x2="30.813" y2="43.5693">
				<stop  offset="0" style="stop-color:#58595B"/>
				<stop  offset="1" style="stop-color:#221F20"/>
			</linearGradient>
			<ellipse clip-path="url(#SVGID_27_)" fill="url(#SVGID_36_)" cx="23.885" cy="43.57" rx="6.928" ry="2.648"/>
			<linearGradient id="SVGID_37_" gradientUnits="userSpaceOnUse" x1="17.0898" y1="43.5684" x2="30.6758" y2="43.5684">
				<stop  offset="0" style="stop-color:#58595B"/>
				<stop  offset="1" style="stop-color:#221F20"/>
			</linearGradient>
			<path clip-path="url(#SVGID_27_)" fill="url(#SVGID_37_)" d="M17.09,43.57c0-1.435,3.042-2.6,6.795-2.6s6.791,1.165,6.791,2.6
				c0,1.432-3.038,2.597-6.791,2.597S17.09,45.002,17.09,43.57z"/>
			<linearGradient id="SVGID_38_" gradientUnits="userSpaceOnUse" x1="17.2231" y1="43.5684" x2="30.5464" y2="43.5684">
				<stop  offset="0" style="stop-color:#58595B"/>
				<stop  offset="1" style="stop-color:#221F20"/>
			</linearGradient>
			<ellipse clip-path="url(#SVGID_27_)" fill="url(#SVGID_38_)" cx="23.885" cy="43.57" rx="6.662" ry="2.546"/>
			<linearGradient id="SVGID_39_" gradientUnits="userSpaceOnUse" x1="17.3564" y1="43.5693" x2="30.4097" y2="43.5693">
				<stop  offset="0" style="stop-color:#58595B"/>
				<stop  offset="1" style="stop-color:#221F20"/>
			</linearGradient>
			<ellipse clip-path="url(#SVGID_27_)" fill="url(#SVGID_39_)" cx="23.883" cy="43.57" rx="6.527" ry="2.496"/>
			<linearGradient id="SVGID_40_" gradientUnits="userSpaceOnUse" x1="17.4897" y1="43.5684" x2="30.2803" y2="43.5684">
				<stop  offset="0" style="stop-color:#58595B"/>
				<stop  offset="1" style="stop-color:#221F20"/>
			</linearGradient>
			<path clip-path="url(#SVGID_27_)" fill="url(#SVGID_40_)" d="M17.49,43.57c0-1.351,2.862-2.447,6.395-2.447
				s6.396,1.097,6.396,2.447c0,1.348-2.863,2.444-6.396,2.444S17.49,44.918,17.49,43.57z"/>
			<linearGradient id="SVGID_41_" gradientUnits="userSpaceOnUse" x1="17.623" y1="43.5684" x2="30.147" y2="43.5684">
				<stop  offset="0" style="stop-color:#58595B"/>
				<stop  offset="1" style="stop-color:#221F20"/>
			</linearGradient>
			<ellipse clip-path="url(#SVGID_27_)" fill="url(#SVGID_41_)" cx="23.885" cy="43.57" rx="6.262" ry="2.394"/>
			<linearGradient id="SVGID_42_" gradientUnits="userSpaceOnUse" x1="17.7563" y1="43.5693" x2="30.0137" y2="43.5693">
				<stop  offset="0" style="stop-color:#58595B"/>
				<stop  offset="1" style="stop-color:#221F20"/>
			</linearGradient>
			<path clip-path="url(#SVGID_27_)" fill="url(#SVGID_42_)" d="M17.756,43.57c0-1.293,2.744-2.344,6.128-2.344
				s6.129,1.051,6.129,2.344c0,1.291-2.745,2.342-6.129,2.342S17.756,44.861,17.756,43.57z"/>
			<linearGradient id="SVGID_43_" gradientUnits="userSpaceOnUse" x1="17.8892" y1="43.5713" x2="29.8804" y2="43.5713">
				<stop  offset="0" style="stop-color:#58595B"/>
				<stop  offset="1" style="stop-color:#221F20"/>
			</linearGradient>
			<ellipse clip-path="url(#SVGID_27_)" fill="url(#SVGID_43_)" cx="23.885" cy="43.57" rx="5.996" ry="2.291"/>
			<linearGradient id="SVGID_44_" gradientUnits="userSpaceOnUse" x1="18.0225" y1="43.5684" x2="29.7471" y2="43.5684">
				<stop  offset="0" style="stop-color:#58595B"/>
				<stop  offset="1" style="stop-color:#221F20"/>
			</linearGradient>
			<ellipse clip-path="url(#SVGID_27_)" fill="url(#SVGID_44_)" cx="23.885" cy="43.57" rx="5.862" ry="2.242"/>
			<linearGradient id="SVGID_45_" gradientUnits="userSpaceOnUse" x1="18.1558" y1="43.5693" x2="29.6138" y2="43.5693">
				<stop  offset="0" style="stop-color:#58595B"/>
				<stop  offset="1" style="stop-color:#221F20"/>
			</linearGradient>
			<path clip-path="url(#SVGID_27_)" fill="url(#SVGID_45_)" d="M18.156,43.57c0-1.21,2.566-2.191,5.729-2.191
				c3.164,0,5.729,0.981,5.729,2.191c0,1.207-2.565,2.189-5.729,2.189C20.722,45.76,18.156,44.777,18.156,43.57z"/>
			<linearGradient id="SVGID_46_" gradientUnits="userSpaceOnUse" x1="18.2891" y1="43.5693" x2="29.4805" y2="43.5693">
				<stop  offset="0" style="stop-color:#58595B"/>
				<stop  offset="1" style="stop-color:#221F20"/>
			</linearGradient>
			<ellipse clip-path="url(#SVGID_27_)" fill="url(#SVGID_46_)" cx="23.885" cy="43.57" rx="5.596" ry="2.139"/>
			<linearGradient id="SVGID_47_" gradientUnits="userSpaceOnUse" x1="18.4224" y1="43.5684" x2="29.3477" y2="43.5684">
				<stop  offset="0" style="stop-color:#58595B"/>
				<stop  offset="1" style="stop-color:#221F20"/>
			</linearGradient>
			<path clip-path="url(#SVGID_27_)" fill="url(#SVGID_47_)" d="M18.422,43.57c0-1.152,2.444-2.09,5.462-2.09
				c3.015,0,5.463,0.938,5.463,2.09c0,1.15-2.448,2.087-5.463,2.087C20.866,45.657,18.422,44.721,18.422,43.57z"/>
			<linearGradient id="SVGID_48_" gradientUnits="userSpaceOnUse" x1="18.5557" y1="43.5693" x2="29.2144" y2="43.5693">
				<stop  offset="0" style="stop-color:#58595B"/>
				<stop  offset="1" style="stop-color:#221F20"/>
			</linearGradient>
			<path clip-path="url(#SVGID_27_)" fill="url(#SVGID_48_)" d="M18.556,43.57c0-1.126,2.387-2.039,5.329-2.039
				c2.943,0,5.33,0.913,5.33,2.039c0,1.123-2.387,2.037-5.33,2.037C20.942,45.607,18.556,44.693,18.556,43.57z"/>
			<linearGradient id="SVGID_49_" gradientUnits="userSpaceOnUse" x1="18.689" y1="43.5693" x2="29.0811" y2="43.5693">
				<stop  offset="0" style="stop-color:#58595B"/>
				<stop  offset="1" style="stop-color:#221F20"/>
			</linearGradient>
			<ellipse clip-path="url(#SVGID_27_)" fill="url(#SVGID_49_)" cx="23.885" cy="43.57" rx="5.196" ry="1.986"/>
			<linearGradient id="SVGID_50_" gradientUnits="userSpaceOnUse" x1="18.8218" y1="43.5684" x2="28.9478" y2="43.5684">
				<stop  offset="0" style="stop-color:#58595B"/>
				<stop  offset="1" style="stop-color:#221F20"/>
			</linearGradient>
			<path clip-path="url(#SVGID_27_)" fill="url(#SVGID_50_)" d="M18.822,43.57c0-1.068,2.265-1.938,5.063-1.938
				c2.794,0,5.063,0.869,5.063,1.938c0,1.066-2.269,1.935-5.063,1.935C21.087,45.505,18.822,44.637,18.822,43.57z"/>
			<linearGradient id="SVGID_51_" gradientUnits="userSpaceOnUse" x1="18.9551" y1="43.5664" x2="28.8145" y2="43.5664">
				<stop  offset="0" style="stop-color:#58595B"/>
				<stop  offset="1" style="stop-color:#221F20"/>
			</linearGradient>
			<ellipse clip-path="url(#SVGID_27_)" fill="url(#SVGID_51_)" cx="23.885" cy="43.57" rx="4.93" ry="1.888"/>
			<linearGradient id="SVGID_52_" gradientUnits="userSpaceOnUse" x1="19.0884" y1="43.5693" x2="28.6812" y2="43.5693">
				<stop  offset="0" style="stop-color:#58595B"/>
				<stop  offset="1" style="stop-color:#221F20"/>
			</linearGradient>
			<ellipse clip-path="url(#SVGID_27_)" fill="url(#SVGID_52_)" cx="23.885" cy="43.57" rx="4.796" ry="1.834"/>
			<linearGradient id="SVGID_53_" gradientUnits="userSpaceOnUse" x1="19.2217" y1="43.5684" x2="28.5479" y2="43.5684">
				<stop  offset="0" style="stop-color:#58595B"/>
				<stop  offset="1" style="stop-color:#221F20"/>
			</linearGradient>
			<path clip-path="url(#SVGID_27_)" fill="url(#SVGID_53_)" d="M19.222,43.57c0-0.985,2.086-1.785,4.663-1.785
				c2.573,0,4.663,0.8,4.663,1.785c0,0.982-2.09,1.782-4.663,1.782C21.308,45.353,19.222,44.553,19.222,43.57z"/>
			<linearGradient id="SVGID_54_" gradientUnits="userSpaceOnUse" x1="19.355" y1="43.5684" x2="28.415" y2="43.5684">
				<stop  offset="0" style="stop-color:#58595B"/>
				<stop  offset="1" style="stop-color:#221F20"/>
			</linearGradient>
			<ellipse clip-path="url(#SVGID_27_)" fill="url(#SVGID_54_)" cx="23.885" cy="43.57" rx="4.53" ry="1.731"/>
			<linearGradient id="SVGID_55_" gradientUnits="userSpaceOnUse" x1="19.4883" y1="43.5693" x2="28.2817" y2="43.5693">
				<stop  offset="0" style="stop-color:#58595B"/>
				<stop  offset="1" style="stop-color:#221F20"/>
			</linearGradient>
			<path clip-path="url(#SVGID_27_)" fill="url(#SVGID_55_)" d="M19.488,43.57c0-0.928,1.968-1.682,4.396-1.682
				s4.397,0.754,4.397,1.682c0,0.926-1.968,1.68-4.397,1.68S19.488,44.496,19.488,43.57z"/>
			<linearGradient id="SVGID_56_" gradientUnits="userSpaceOnUse" x1="19.6216" y1="43.5684" x2="28.1484" y2="43.5684">
				<stop  offset="0" style="stop-color:#58595B"/>
				<stop  offset="1" style="stop-color:#221F20"/>
			</linearGradient>
			<path clip-path="url(#SVGID_27_)" fill="url(#SVGID_56_)" d="M19.622,43.57c0-0.901,1.907-1.633,4.263-1.633
				c2.353,0,4.264,0.731,4.264,1.633c0,0.898-1.911,1.63-4.264,1.63C21.528,45.2,19.622,44.469,19.622,43.57z"/>
			<linearGradient id="SVGID_57_" gradientUnits="userSpaceOnUse" x1="19.7544" y1="43.5684" x2="28.0151" y2="43.5684">
				<stop  offset="0" style="stop-color:#58595B"/>
				<stop  offset="1" style="stop-color:#221F20"/>
			</linearGradient>
			<path clip-path="url(#SVGID_27_)" fill="url(#SVGID_57_)" d="M19.754,43.57c0-0.875,1.85-1.579,4.13-1.579s4.13,0.704,4.13,1.579
				c0,0.869-1.85,1.576-4.13,1.576S19.754,44.439,19.754,43.57z"/>
			<linearGradient id="SVGID_58_" gradientUnits="userSpaceOnUse" x1="19.8877" y1="43.5693" x2="27.8818" y2="43.5693">
				<stop  offset="0" style="stop-color:#58595B"/>
				<stop  offset="1" style="stop-color:#221F20"/>
			</linearGradient>
			<path clip-path="url(#SVGID_27_)" fill="url(#SVGID_58_)" d="M19.888,43.57c0-0.844,1.789-1.529,3.997-1.529
				s3.997,0.686,3.997,1.529c0,0.842-1.789,1.527-3.997,1.527S19.888,44.412,19.888,43.57z"/>
			<linearGradient id="SVGID_59_" gradientUnits="userSpaceOnUse" x1="20.021" y1="43.5703" x2="27.7485" y2="43.5703">
				<stop  offset="0" style="stop-color:#58595B"/>
				<stop  offset="1" style="stop-color:#221F20"/>
			</linearGradient>
			<path clip-path="url(#SVGID_27_)" fill="url(#SVGID_59_)" d="M20.021,43.57c0-0.818,1.729-1.477,3.864-1.477
				c2.132,0,3.864,0.658,3.864,1.477c0,0.815-1.732,1.478-3.864,1.478C21.75,45.048,20.021,44.386,20.021,43.57z"/>
			<linearGradient id="SVGID_60_" gradientUnits="userSpaceOnUse" x1="20.1543" y1="43.5684" x2="27.6152" y2="43.5684">
				<stop  offset="0" style="stop-color:#58595B"/>
				<stop  offset="1" style="stop-color:#221F20"/>
			</linearGradient>
			<path clip-path="url(#SVGID_27_)" fill="url(#SVGID_60_)" d="M20.154,43.57c0-0.787,1.671-1.427,3.73-1.427
				c2.06,0,3.73,0.64,3.73,1.427c0,0.785-1.671,1.424-3.73,1.424C21.826,44.994,20.154,44.355,20.154,43.57z"/>
			<linearGradient id="SVGID_61_" gradientUnits="userSpaceOnUse" x1="20.2876" y1="43.5693" x2="27.4819" y2="43.5693">
				<stop  offset="0" style="stop-color:#58595B"/>
				<stop  offset="1" style="stop-color:#221F20"/>
			</linearGradient>
			<ellipse clip-path="url(#SVGID_27_)" fill="url(#SVGID_61_)" cx="23.885" cy="43.57" rx="3.597" ry="1.377"/>
			<linearGradient id="SVGID_62_" gradientUnits="userSpaceOnUse" x1="20.4209" y1="43.5693" x2="27.3491" y2="43.5693">
				<stop  offset="0" style="stop-color:#58595B"/>
				<stop  offset="1" style="stop-color:#221F20"/>
			</linearGradient>
			<path clip-path="url(#SVGID_27_)" fill="url(#SVGID_62_)" d="M20.421,43.57c0-0.734,1.549-1.324,3.464-1.324
				c1.911,0,3.464,0.59,3.464,1.324c0,0.731-1.553,1.322-3.464,1.322C21.97,44.893,20.421,44.302,20.421,43.57z"/>
			<linearGradient id="SVGID_63_" gradientUnits="userSpaceOnUse" x1="20.5542" y1="43.5684" x2="27.2158" y2="43.5684">
				<stop  offset="0" style="stop-color:#58595B"/>
				<stop  offset="1" style="stop-color:#221F20"/>
			</linearGradient>
			<ellipse clip-path="url(#SVGID_27_)" fill="url(#SVGID_63_)" cx="23.885" cy="43.57" rx="3.331" ry="1.274"/>
			<linearGradient id="SVGID_64_" gradientUnits="userSpaceOnUse" x1="20.687" y1="43.5674" x2="27.0825" y2="43.5674">
				<stop  offset="0" style="stop-color:#58595B"/>
				<stop  offset="1" style="stop-color:#221F20"/>
			</linearGradient>
			<ellipse clip-path="url(#SVGID_27_)" fill="url(#SVGID_64_)" cx="23.885" cy="43.57" rx="3.198" ry="1.225"/>
			<linearGradient id="SVGID_65_" gradientUnits="userSpaceOnUse" x1="20.8203" y1="43.5693" x2="26.9492" y2="43.5693">
				<stop  offset="0" style="stop-color:#58595B"/>
				<stop  offset="1" style="stop-color:#221F20"/>
			</linearGradient>
			<ellipse clip-path="url(#SVGID_27_)" fill="url(#SVGID_65_)" cx="23.885" cy="43.57" rx="3.064" ry="1.172"/>
			<linearGradient id="SVGID_66_" gradientUnits="userSpaceOnUse" x1="20.9536" y1="43.5684" x2="26.8159" y2="43.5684">
				<stop  offset="0" style="stop-color:#58595B"/>
				<stop  offset="1" style="stop-color:#221F20"/>
			</linearGradient>
			<path clip-path="url(#SVGID_27_)" fill="url(#SVGID_66_)" d="M20.954,43.57c0-0.619,1.31-1.123,2.931-1.123
				c1.618,0,2.931,0.504,2.931,1.123c0,0.617-1.313,1.119-2.931,1.119C22.263,44.689,20.954,44.188,20.954,43.57z"/>
			<linearGradient id="SVGID_67_" gradientUnits="userSpaceOnUse" x1="21.0869" y1="43.5693" x2="26.6826" y2="43.5693">
				<stop  offset="0" style="stop-color:#58595B"/>
				<stop  offset="1" style="stop-color:#221F20"/>
			</linearGradient>
			<path clip-path="url(#SVGID_27_)" fill="url(#SVGID_67_)" d="M21.087,43.57c0-0.594,1.252-1.068,2.798-1.068
				s2.798,0.475,2.798,1.068c0,0.591-1.252,1.066-2.798,1.066S21.087,44.161,21.087,43.57z"/>
			<linearGradient id="SVGID_68_" gradientUnits="userSpaceOnUse" x1="21.2202" y1="43.5693" x2="26.5493" y2="43.5693">
				<stop  offset="0" style="stop-color:#58595B"/>
				<stop  offset="1" style="stop-color:#221F20"/>
			</linearGradient>
			<ellipse clip-path="url(#SVGID_27_)" fill="url(#SVGID_68_)" cx="23.885" cy="43.57" rx="2.665" ry="1.02"/>
			<linearGradient id="SVGID_69_" gradientUnits="userSpaceOnUse" x1="21.3535" y1="43.5684" x2="26.4165" y2="43.5684">
				<stop  offset="0" style="stop-color:#58595B"/>
				<stop  offset="1" style="stop-color:#221F20"/>
			</linearGradient>
			<path clip-path="url(#SVGID_27_)" fill="url(#SVGID_69_)" d="M21.354,43.57c0-0.536,1.13-0.971,2.531-0.971
				c1.397,0,2.532,0.435,2.532,0.971c0,0.533-1.135,0.968-2.532,0.968C22.484,44.538,21.354,44.104,21.354,43.57z"/>
			<linearGradient id="SVGID_70_" gradientUnits="userSpaceOnUse" x1="21.4868" y1="43.5684" x2="26.2832" y2="43.5684">
				<stop  offset="0" style="stop-color:#58595B"/>
				<stop  offset="1" style="stop-color:#221F20"/>
			</linearGradient>
			<path clip-path="url(#SVGID_27_)" fill="url(#SVGID_70_)" d="M21.487,43.57c0-0.51,1.073-0.917,2.398-0.917
				s2.398,0.407,2.398,0.917c0,0.503-1.074,0.914-2.398,0.914S21.487,44.073,21.487,43.57z"/>
			<linearGradient id="SVGID_71_" gradientUnits="userSpaceOnUse" x1="21.6201" y1="43.5693" x2="26.1499" y2="43.5693">
				<stop  offset="0" style="stop-color:#58595B"/>
				<stop  offset="1" style="stop-color:#221F20"/>
			</linearGradient>
			<ellipse clip-path="url(#SVGID_27_)" fill="url(#SVGID_71_)" cx="23.885" cy="43.57" rx="2.265" ry="0.867"/>
			<linearGradient id="SVGID_72_" gradientUnits="userSpaceOnUse" x1="21.7529" y1="43.5703" x2="26.0166" y2="43.5703">
				<stop  offset="0" style="stop-color:#58595B"/>
				<stop  offset="1" style="stop-color:#221F20"/>
			</linearGradient>
			<path clip-path="url(#SVGID_27_)" fill="url(#SVGID_72_)" d="M21.753,43.57c0-0.452,0.952-0.814,2.132-0.814
				c1.176,0,2.132,0.362,2.132,0.814c0,0.449-0.956,0.815-2.132,0.815C22.705,44.386,21.753,44.02,21.753,43.57z"/>
			<linearGradient id="SVGID_73_" gradientUnits="userSpaceOnUse" x1="21.8862" y1="43.5684" x2="25.8833" y2="43.5684">
				<stop  offset="0" style="stop-color:#58595B"/>
				<stop  offset="1" style="stop-color:#221F20"/>
			</linearGradient>
			<ellipse clip-path="url(#SVGID_27_)" fill="url(#SVGID_73_)" cx="23.885" cy="43.57" rx="1.999" ry="0.765"/>
			<linearGradient id="SVGID_74_" gradientUnits="userSpaceOnUse" x1="22.0195" y1="43.5693" x2="25.75" y2="43.5693">
				<stop  offset="0" style="stop-color:#58595B"/>
				<stop  offset="1" style="stop-color:#221F20"/>
			</linearGradient>
			<ellipse clip-path="url(#SVGID_27_)" fill="url(#SVGID_74_)" cx="23.885" cy="43.57" rx="1.865" ry="0.715"/>
			<linearGradient id="SVGID_75_" gradientUnits="userSpaceOnUse" x1="22.1528" y1="43.5684" x2="25.6167" y2="43.5684">
				<stop  offset="0" style="stop-color:#58595B"/>
				<stop  offset="1" style="stop-color:#221F20"/>
			</linearGradient>
			<ellipse clip-path="url(#SVGID_27_)" fill="url(#SVGID_75_)" cx="23.885" cy="43.57" rx="1.732" ry="0.662"/>
			<linearGradient id="SVGID_76_" gradientUnits="userSpaceOnUse" x1="22.2861" y1="43.5684" x2="25.4839" y2="43.5684">
				<stop  offset="0" style="stop-color:#58595B"/>
				<stop  offset="1" style="stop-color:#221F20"/>
			</linearGradient>
			<ellipse clip-path="url(#SVGID_27_)" fill="url(#SVGID_76_)" cx="23.885" cy="43.57" rx="1.599" ry="0.612"/>
			<linearGradient id="SVGID_77_" gradientUnits="userSpaceOnUse" x1="22.4194" y1="43.5693" x2="25.3506" y2="43.5693">
				<stop  offset="0" style="stop-color:#58595B"/>
				<stop  offset="1" style="stop-color:#221F20"/>
			</linearGradient>
			<ellipse clip-path="url(#SVGID_27_)" fill="url(#SVGID_77_)" cx="23.885" cy="43.57" rx="1.466" ry="0.563"/>
			<linearGradient id="SVGID_78_" gradientUnits="userSpaceOnUse" x1="22.5527" y1="43.5684" x2="25.2173" y2="43.5684">
				<stop  offset="0" style="stop-color:#58595B"/>
				<stop  offset="1" style="stop-color:#221F20"/>
			</linearGradient>
			<path clip-path="url(#SVGID_27_)" fill="url(#SVGID_78_)" d="M22.553,43.57c0-0.281,0.594-0.51,1.332-0.51
				c0.735,0,1.333,0.229,1.333,0.51c0,0.278-0.598,0.507-1.333,0.507C23.146,44.077,22.553,43.849,22.553,43.57z"/>
			<linearGradient id="SVGID_79_" gradientUnits="userSpaceOnUse" x1="22.6855" y1="43.5684" x2="25.084" y2="43.5684">
				<stop  offset="0" style="stop-color:#58595B"/>
				<stop  offset="1" style="stop-color:#221F20"/>
			</linearGradient>
			<ellipse clip-path="url(#SVGID_27_)" fill="url(#SVGID_79_)" cx="23.885" cy="43.57" rx="1.199" ry="0.46"/>
			<linearGradient id="SVGID_80_" gradientUnits="userSpaceOnUse" x1="22.8188" y1="43.5674" x2="24.9507" y2="43.5674">
				<stop  offset="0" style="stop-color:#58595B"/>
				<stop  offset="1" style="stop-color:#221F20"/>
			</linearGradient>
			<ellipse clip-path="url(#SVGID_27_)" fill="url(#SVGID_80_)" cx="23.885" cy="43.57" rx="1.066" ry="0.41"/>
			<linearGradient id="SVGID_81_" gradientUnits="userSpaceOnUse" x1="22.9521" y1="43.5684" x2="24.8174" y2="43.5684">
				<stop  offset="0" style="stop-color:#58595B"/>
				<stop  offset="1" style="stop-color:#221F20"/>
			</linearGradient>
			<ellipse clip-path="url(#SVGID_27_)" fill="url(#SVGID_81_)" cx="23.885" cy="43.57" rx="0.933" ry="0.357"/>
			<linearGradient id="SVGID_82_" gradientUnits="userSpaceOnUse" x1="23.0854" y1="43.5684" x2="24.6841" y2="43.5684">
				<stop  offset="0" style="stop-color:#58595B"/>
				<stop  offset="1" style="stop-color:#221F20"/>
			</linearGradient>
			<ellipse clip-path="url(#SVGID_27_)" fill="url(#SVGID_82_)" cx="23.885" cy="43.57" rx="0.799" ry="0.308"/>
			<linearGradient id="SVGID_83_" gradientUnits="userSpaceOnUse" x1="23.2188" y1="43.5693" x2="24.5508" y2="43.5693">
				<stop  offset="0" style="stop-color:#58595B"/>
				<stop  offset="1" style="stop-color:#221F20"/>
			</linearGradient>
			<path clip-path="url(#SVGID_27_)" fill="url(#SVGID_83_)" d="M23.219,43.57c0-0.145,0.297-0.254,0.666-0.254
				c0.366,0,0.666,0.109,0.666,0.254c0,0.138-0.3,0.252-0.666,0.252C23.516,43.822,23.219,43.708,23.219,43.57z"/>
			<linearGradient id="SVGID_84_" gradientUnits="userSpaceOnUse" x1="23.3521" y1="43.5693" x2="24.418" y2="43.5693">
				<stop  offset="0" style="stop-color:#58595B"/>
				<stop  offset="1" style="stop-color:#221F20"/>
			</linearGradient>
			<ellipse clip-path="url(#SVGID_27_)" fill="url(#SVGID_84_)" cx="23.885" cy="43.57" rx="0.533" ry="0.205"/>
			<linearGradient id="SVGID_85_" gradientUnits="userSpaceOnUse" x1="23.4854" y1="43.5684" x2="24.2847" y2="43.5684">
				<stop  offset="0" style="stop-color:#58595B"/>
				<stop  offset="1" style="stop-color:#221F20"/>
			</linearGradient>
			<ellipse clip-path="url(#SVGID_27_)" fill="url(#SVGID_85_)" cx="23.885" cy="43.57" rx="0.4" ry="0.155"/>
			<linearGradient id="SVGID_86_" gradientUnits="userSpaceOnUse" x1="23.6182" y1="43.5693" x2="24.1514" y2="43.5693">
				<stop  offset="0" style="stop-color:#58595B"/>
				<stop  offset="1" style="stop-color:#221F20"/>
			</linearGradient>
			<ellipse clip-path="url(#SVGID_27_)" fill="url(#SVGID_86_)" cx="23.885" cy="43.57" rx="0.267" ry="0.102"/>
			<linearGradient id="SVGID_87_" gradientUnits="userSpaceOnUse" x1="23.7515" y1="43.5693" x2="24.0181" y2="43.5693">
				<stop  offset="0" style="stop-color:#58595B"/>
				<stop  offset="1" style="stop-color:#221F20"/>
			</linearGradient>
			<ellipse clip-path="url(#SVGID_27_)" fill="url(#SVGID_87_)" cx="23.885" cy="43.57" rx="0.133" ry="0.053"/>
		</g>
	</g>
	<g>
		<g>
			
				<radialGradient id="SVGID_88_" cx="-20.1313" cy="15863.5352" r="3.1662" gradientTransform="matrix(-0.893 0 0 0.3414 5.0311 -5374.8345)" gradientUnits="userSpaceOnUse">
				<stop  offset="0" style="stop-color:#58595B"/>
				<stop  offset="1" style="stop-color:#221F20"/>
			</radialGradient>
			<path fill="url(#SVGID_88_)" d="M20.894,44.377c-0.099,0-0.199-0.03-0.285-0.094c-0.218-0.157-0.267-0.463-0.108-0.68
				l4.227-5.827c0.157-0.219,0.462-0.267,0.681-0.108c0.218,0.158,0.266,0.463,0.108,0.68l-4.228,5.828
				C21.193,44.307,21.044,44.377,20.894,44.377z"/>
		</g>
		<g>
			
				<radialGradient id="SVGID_89_" cx="-16.2012" cy="15853.8066" r="5.1225" gradientTransform="matrix(-0.893 0 0 0.3414 5.0311 -5374.8345)" gradientUnits="userSpaceOnUse">
				<stop  offset="0" style="stop-color:#58595B"/>
				<stop  offset="1" style="stop-color:#221F20"/>
			</radialGradient>
			<path fill="url(#SVGID_89_)" d="M20.313,39.418c-4.473,0-6.935-2.68-6.967-2.716c-0.179-0.2-0.162-0.507,0.039-0.687
				c0.199-0.179,0.507-0.163,0.688,0.037c0.159,0.176,3.983,4.285,11.028,1.36c0.25-0.101,0.533,0.015,0.637,0.263
				c0.103,0.25-0.015,0.535-0.263,0.638C23.539,39.117,21.812,39.418,20.313,39.418z"/>
		</g>
	</g>
	
		<line fill="none" stroke="#8CD2F3" stroke-width="0.9745" stroke-linecap="round" stroke-miterlimit="10" x1="28.23" y1="34.314" x2="53.625" y2="34.321"/>
	
		<linearGradient id="SVGID_90_" gradientUnits="userSpaceOnUse" x1="-9.646" y1="51.6191" x2="-7.1279" y2="51.6191" gradientTransform="matrix(1 0 0 1 34.3877 0)">
		<stop  offset="0" style="stop-color:#BCBEC0"/>
		<stop  offset="0.3118" style="stop-color:#6D6E71"/>
		<stop  offset="0.5645" style="stop-color:#A9ABAD"/>
		<stop  offset="1" style="stop-color:#E6E7E8"/>
	</linearGradient>
	<path fill="url(#SVGID_90_)" d="M24.821,50.973c-0.396,0.201,0.826,1.588,0.826,1.588l1.613-0.903
		C27.26,51.657,26.688,50.027,24.821,50.973z"/>
	<polygon fill="#424042" points="24.879,25.517 24.302,25.517 24.073,24.395 25.108,24.395 	"/>
</g>
</svg>
